<svg id="visual" viewBox="0 0 900 300" width="900" height="300" xmlns="http://www.w3.org/2000/svg" xmlns:xlink="http://www.w3.org/1999/xlink" version="1.1"><rect x="0" y="0" width="900" height="300" fill="#e2e7ef"></rect><path d="M0 79L10.7 84C21.3 89 42.7 99 64.2 105.2C85.7 111.3 107.3 113.7 128.8 112.8C150.3 112 171.7 108 193 102.7C214.3 97.3 235.7 90.7 257 85.5C278.3 80.3 299.7 76.7 321.2 82.7C342.7 88.7 364.3 104.3 385.8 105.5C407.3 106.7 428.7 93.3 450 92.8C471.3 92.3 492.7 104.7 514.2 112.3C535.7 120 557.3 123 578.8 121.8C600.3 120.7 621.7 115.3 643 106.7C664.3 98 685.7 86 707 86.5C728.3 87 749.7 100 771.2 107C792.7 114 814.3 115 835.8 114.7C857.3 114.3 878.7 112.7 889.3 111.8L900 111L900 301L889.3 301C878.7 301 857.3 301 835.8 301C814.3 301 792.7 301 771.2 301C749.7 301 728.3 301 707 301C685.7 301 664.3 301 643 301C621.7 301 600.3 301 578.8 301C557.3 301 535.7 301 514.2 301C492.7 301 471.3 301 450 301C428.7 301 407.3 301 385.8 301C364.3 301 342.7 301 321.2 301C299.7 301 278.3 301 257 301C235.7 301 214.3 301 193 301C171.7 301 150.3 301 128.8 301C107.3 301 85.7 301 64.2 301C42.7 301 21.3 301 10.7 301L0 301Z" fill="#2a9d8f"></path><path d="M0 147L10.7 146.2C21.3 145.3 42.7 143.7 64.2 138.8C85.7 134 107.3 126 128.8 123.3C150.3 120.7 171.7 123.3 193 126.3C214.3 129.3 235.7 132.7 257 131.5C278.3 130.3 299.7 124.7 321.2 122C342.7 119.3 364.3 119.7 385.8 119.3C407.3 119 428.7 118 450 118.7C471.3 119.3 492.7 121.7 514.2 126.7C535.7 131.7 557.3 139.3 578.8 138C600.3 136.7 621.7 126.3 643 126.2C664.3 126 685.7 136 707 138C728.3 140 749.7 134 771.2 128.3C792.7 122.7 814.3 117.3 835.8 117.5C857.3 117.7 878.7 123.3 889.3 126.2L900 129L900 301L889.3 301C878.7 301 857.3 301 835.8 301C814.3 301 792.7 301 771.2 301C749.7 301 728.3 301 707 301C685.7 301 664.3 301 643 301C621.7 301 600.3 301 578.8 301C557.3 301 535.7 301 514.2 301C492.7 301 471.3 301 450 301C428.7 301 407.3 301 385.8 301C364.3 301 342.7 301 321.2 301C299.7 301 278.3 301 257 301C235.7 301 214.3 301 193 301C171.7 301 150.3 301 128.8 301C107.3 301 85.7 301 64.2 301C42.7 301 21.3 301 10.7 301L0 301Z" fill="#007c81"></path><path d="M0 196L10.7 188.8C21.3 181.7 42.7 167.3 64.2 161.2C85.7 155 107.3 157 128.8 163.5C150.3 170 171.7 181 193 187.2C214.3 193.3 235.7 194.7 257 191C278.3 187.3 299.7 178.7 321.2 177.5C342.7 176.3 364.3 182.7 385.8 186.8C407.3 191 428.7 193 450 189.2C471.3 185.3 492.7 175.7 514.2 169.3C535.7 163 557.3 160 578.8 158.2C600.3 156.3 621.7 155.7 643 159.3C664.3 163 685.7 171 707 173.2C728.3 175.3 749.7 171.7 771.2 168.8C792.7 166 814.3 164 835.8 165C857.3 166 878.7 170 889.3 172L900 174L900 301L889.3 301C878.7 301 857.3 301 835.8 301C814.3 301 792.7 301 771.2 301C749.7 301 728.3 301 707 301C685.7 301 664.3 301 643 301C621.7 301 600.3 301 578.8 301C557.3 301 535.7 301 514.2 301C492.7 301 471.3 301 450 301C428.7 301 407.3 301 385.8 301C364.3 301 342.7 301 321.2 301C299.7 301 278.3 301 257 301C235.7 301 214.3 301 193 301C171.7 301 150.3 301 128.8 301C107.3 301 85.7 301 64.2 301C42.7 301 21.3 301 10.7 301L0 301Z" fill="#005c6b"></path><path d="M0 228L10.7 224C21.3 220 42.7 212 64.2 208C85.7 204 107.3 204 128.8 204.8C150.3 205.7 171.7 207.3 193 207.3C214.3 207.3 235.7 205.7 257 208.8C278.3 212 299.7 220 321.2 220.2C342.7 220.3 364.3 212.7 385.8 210.3C407.3 208 428.7 211 450 211.8C471.3 212.7 492.7 211.3 514.2 208.7C535.7 206 557.3 202 578.8 205.2C600.3 208.3 621.7 218.7 643 222C664.3 225.3 685.7 221.7 707 220.5C728.3 219.3 749.7 220.7 771.2 217.5C792.7 214.3 814.3 206.7 835.8 206C857.3 205.3 878.7 211.7 889.3 214.8L900 218L900 301L889.3 301C878.7 301 857.3 301 835.8 301C814.3 301 792.7 301 771.2 301C749.7 301 728.3 301 707 301C685.7 301 664.3 301 643 301C621.7 301 600.3 301 578.8 301C557.3 301 535.7 301 514.2 301C492.7 301 471.3 301 450 301C428.7 301 407.3 301 385.8 301C364.3 301 342.7 301 321.2 301C299.7 301 278.3 301 257 301C235.7 301 214.3 301 193 301C171.7 301 150.3 301 128.8 301C107.3 301 85.7 301 64.2 301C42.7 301 21.3 301 10.7 301L0 301Z" fill="#003e50"></path><path d="M0 244L10.7 245.5C21.3 247 42.7 250 64.2 253C85.7 256 107.3 259 128.8 258.5C150.3 258 171.7 254 193 250.7C214.3 247.3 235.7 244.7 257 246.3C278.3 248 299.7 254 321.2 253.5C342.7 253 364.3 246 385.8 244C407.3 242 428.7 245 450 246.3C471.3 247.7 492.7 247.3 514.2 250C535.7 252.7 557.3 258.3 578.8 259.5C600.3 260.7 621.7 257.3 643 256.7C664.3 256 685.7 258 707 257.8C728.3 257.7 749.7 255.3 771.2 254.5C792.7 253.7 814.3 254.3 835.8 255C857.3 255.7 878.7 256.3 889.3 256.7L900 257L900 301L889.3 301C878.7 301 857.3 301 835.8 301C814.3 301 792.7 301 771.2 301C749.7 301 728.3 301 707 301C685.7 301 664.3 301 643 301C621.7 301 600.3 301 578.8 301C557.3 301 535.7 301 514.2 301C492.7 301 471.3 301 450 301C428.7 301 407.3 301 385.8 301C364.3 301 342.7 301 321.2 301C299.7 301 278.3 301 257 301C235.7 301 214.3 301 193 301C171.7 301 150.3 301 128.8 301C107.3 301 85.7 301 64.2 301C42.7 301 21.3 301 10.7 301L0 301Z" fill="#002233"></path></svg>